<svg width="48" height="48" viewBox="0 0 48 48" fill="none" xmlns="http://www.w3.org/2000/svg">
<path d="M47.8816 3.8211C47.6878 2.81979 47.3325 2.39988 47.1387 2.17378C46.7511 1.78618 46.3635 1.62468 46.1374 1.56008C45.8467 1.43088 45.4268 1.33398 44.6839 1.33398C44.4255 1.33398 43.4565 1.36628 41.9384 1.78619C41.357 1.94769 40.9048 2.10919 40.5172 2.27069C40.4203 2.30299 40.2911 2.36759 40.1942 2.39989C39.9681 2.49679 39.096 2.8521 37.9978 3.4335C36.8996 4.0149 36.1243 4.53171 35.8659 4.69321C35.2845 5.08081 34.5739 5.59761 33.831 6.24362C33.6695 6.14672 33.4757 6.01751 33.3142 5.92061C30.1165 4.0795 26.4343 3.01359 22.4936 3.01359C21.1047 3.01359 19.7158 3.1428 18.3915 3.4012C15.8398 3.8857 13.4173 4.82241 11.2532 6.14672C9.76734 5.24231 8.44304 4.5963 7.44173 4.1441C5.37451 3.20739 3.9856 2.81979 2.53209 2.91669C1.65998 2.9813 1.14318 3.2074 0.787876 3.5627C0.303373 4.0472 0.174168 4.66091 0.0772672 5.04851C0.0126667 5.33922 -0.0196277 5.59762 0.0126726 6.14672C0.0126726 7.27723 0.174176 8.14933 0.206476 8.47233C0.400278 9.69974 0.658675 10.6688 0.787876 11.121C1.14318 12.413 1.56309 13.6081 1.82149 14.4156C1.85379 14.4802 1.88608 14.5771 1.88608 14.5771C2.07988 15.1585 2.30599 15.7722 2.53209 16.3536C1.82148 18.0655 1.30468 19.8743 1.07858 21.78C0.949376 22.7167 0.884773 23.6858 0.884773 24.6548C0.884773 25.6884 0.949378 26.6897 1.11088 27.691C2.40289 36.832 9.37974 44.1641 18.3915 45.9083C19.7481 46.1667 21.137 46.2959 22.5582 46.2959C33.4757 46.2959 42.5198 38.1886 44.0056 27.6587C44.1348 26.6574 44.2317 25.6561 44.2317 24.6225C44.2317 24.0734 44.1994 23.5242 44.1671 23.0074C44.1348 22.5875 44.1025 22.1676 44.0379 21.7477C43.941 20.9725 43.7795 20.1973 43.5857 19.4221C43.7149 19.196 43.8764 18.873 44.0379 18.4854C44.3286 17.904 45.0715 16.3536 45.9113 13.9957C46.2666 12.9944 46.6542 11.8639 47.0095 10.5718C47.0095 10.5718 47.4617 9.05374 47.9139 6.37282C47.9462 6.01751 48.1077 5.01621 47.8816 3.8211ZM17.1964 6.37282C15.9367 9.89354 15.0646 13.8019 14.5801 17.9363C14.5155 18.4208 14.4832 18.9053 14.4186 19.3575C10.6395 19.7128 7.05412 20.2942 3.6949 21.1017C3.7595 20.7787 3.8241 20.4234 3.921 20.1004C5.56832 13.4789 10.6717 8.21393 17.1964 6.37282ZM28.4369 22.9752C28.8891 23.0075 29.3413 23.0397 29.7612 23.072C31.0209 23.1689 32.216 23.2659 33.3142 23.3951C38.2239 23.9765 41.4216 24.9132 41.4216 25.9791C41.4216 27.3034 36.5443 28.4339 29.6643 28.9184C29.7289 27.5941 29.7935 26.2052 29.7935 24.784C29.7935 24.6548 29.7935 24.5579 29.7935 24.4287C29.3413 24.3964 28.8891 24.3964 28.4692 24.3641C28.4692 24.461 28.4692 24.5902 28.4692 24.6871C28.4692 26.1729 28.4369 27.5941 28.34 28.983C26.4989 29.0799 24.5286 29.1445 22.4936 29.1445C21.46 29.1445 20.4587 29.1445 19.4574 29.1122C19.4897 29.5967 19.522 30.0812 19.5543 30.5334C20.5233 30.5657 21.4923 30.598 22.4613 30.598C24.3993 30.598 26.3374 30.5334 28.2108 30.4042C27.5648 38.0271 25.6268 43.615 23.3012 43.7442C23.2689 43.7442 23.2366 43.7442 23.2043 43.7442C20.8786 43.7442 18.876 38.1563 18.1977 30.4688C18.1654 30.0166 18.1331 29.5321 18.1008 29.0476C18.0039 27.6587 17.9716 26.1729 17.9716 24.6871C17.9716 24.3964 17.9716 24.138 17.9716 23.8473C17.9716 23.5243 17.9716 23.2013 18.0039 22.8783C18.4561 22.846 18.9083 22.8459 19.3605 22.8459C20.3941 22.8136 21.4277 22.8137 22.4936 22.8137C24.5286 22.8137 26.5312 22.8783 28.4369 22.9752ZM2.27369 10.1519C2.04759 9.31214 1.85378 8.47234 1.75688 7.60023C1.69228 6.95423 1.46618 5.75911 2.04758 5.27461C2.27369 5.08081 2.62899 5.08081 2.91969 5.11311C3.3073 5.17771 3.6626 5.33922 4.0179 5.53302C4.2763 5.66222 4.5024 5.82372 4.7608 5.98522C4.9869 6.14672 5.21301 6.30822 5.43911 6.46972C5.89131 6.79272 6.34352 7.14802 6.79572 7.50332C7.21563 7.82633 7.60322 8.18163 7.99083 8.53694C6.18201 10.1519 4.6639 12.0254 3.5011 14.1572C3.04889 12.8652 2.62899 11.5086 2.27369 10.1519ZM3.7595 28.4662C6.69883 29.1768 9.79965 29.6936 13.0297 30.0812C12.9974 29.629 12.9651 29.1768 12.9328 28.7246C7.28022 28.1755 3.5011 27.1742 3.5011 25.9791C3.5011 24.9132 6.69882 23.9442 11.6085 23.3951C12.4483 23.2981 13.3204 23.2013 14.2248 23.1367C14.2248 23.2982 14.2248 23.4919 14.2248 23.6534C14.2248 24.0411 14.2248 24.4287 14.2248 24.8163C14.2248 26.1729 14.2571 27.5295 14.354 28.8538C14.3863 29.306 14.4186 29.7582 14.4509 30.2427C14.8708 34.8616 15.8075 39.1899 17.1641 43.0659C10.3488 41.0633 5.14841 35.4753 3.7595 28.4662ZM26.079 43.4535C27.7586 41.5155 29.0506 36.5736 29.5674 30.3073C33.6695 29.9843 37.5456 29.3383 41.1632 28.4662C39.6451 36.0245 33.6695 41.9677 26.079 43.4535ZM46.202 6.21131C46.0082 7.60022 45.5883 8.95685 45.1038 10.2812C44.7162 11.3794 44.2963 12.4453 43.8441 13.5112C43.4242 14.5771 42.972 15.6107 42.5521 16.6766C42.1968 15.8045 41.8092 14.9647 41.357 14.1572L41.3247 14.1895C40.6464 14.8032 40.3234 15.643 40.2588 16.5151C40.1942 17.6779 40.6141 18.7438 40.9371 19.842C41.0017 20.1004 41.0663 20.3588 41.0986 20.6172C41.0986 20.6495 41.2278 21.134 41.1955 21.134C37.5778 20.2619 33.6695 19.6482 29.5674 19.2929C29.1152 19.2606 28.663 19.2283 28.2108 19.196C26.3374 19.0668 24.3994 19.0022 22.429 19.0022C21.46 19.0022 20.491 19.0022 19.522 19.0668C19.0698 19.0668 18.6176 19.0991 18.1654 19.1314C18.1977 18.6792 18.2623 18.1947 18.2946 17.7425C19.0698 10.6688 20.9432 5.66222 23.1719 5.66222C23.2688 5.66222 23.3658 5.66222 23.4627 5.69452C25.5622 6.08212 27.3387 10.9918 28.0816 17.8071C28.5338 17.8394 28.986 17.8717 29.4382 17.8717C28.8568 12.0577 27.5325 7.56793 25.9175 5.95292C28.2431 6.37282 30.4072 7.21263 32.3452 8.40774C32.1514 9.63515 32.4098 10.7979 33.185 11.5409C33.6695 11.0241 34.154 10.5396 34.6708 10.0551C35.2845 9.44135 35.8982 8.85994 36.5443 8.27854C36.9642 7.89093 37.4164 7.50333 37.8686 7.14803C39.2575 6.01752 40.7756 5.04851 42.4229 4.3379C42.7782 4.1764 43.1012 4.04721 43.4565 3.918C44.1025 3.6919 45.2976 3.3043 45.9113 3.8534C46.1051 4.0149 46.1697 4.30561 46.202 4.53171C46.3312 5.08081 46.2666 5.66221 46.202 6.21131Z" fill="white"/>
</svg>
